# xmcd CD database file
#
# Track frame offsets:
#	150
#	22065
#	49548
#	84007
#	111560
#	155776
#	197736
#	236904
#	263919
#	297911
#	324362
#
# Disc length: 4597 seconds
#
# Revision: 0
# Processed by: cddbd v1.4PL0 Copyright (c) Steve Scherf et al.
# Submitted via: CDex 1.50
#
DISCID=9a11f30b
DTITLE=Brenda Bufalino - Dancing My Dance
DYEAR=2003
DGENRE=Jazz
TTITLE0=Hit It
TTITLE1=Flame
TTITLE2=The Beginning
TTITLE3=Secret Love
TTITLE4=Tea For Two
TTITLE5=Night Cry
TTITLE6=Midnight Sun
TTITLE7=Dancing My Dance
TTITLE8=I Thought About You
TTITLE9=Too Tall, Too Small Blues
TTITLE10=Always
EXTD=YEAR: 2003
EXTT0=
EXTT1=
EXTT2=
EXTT3=
EXTT4=
EXTT5=
EXTT6=
EXTT7=
EXTT8=
EXTT9=
EXTT10=
PLAYORDER=
